<svg width="800" height="800" viewBox="0 0 800 800" fill="none" xmlns="http://www.w3.org/2000/svg">
<rect width="800" height="800" rx="400" fill="#FF0099"/>
<path d="M365.019 281C359.715 281 354.629 283.107 350.878 286.856H350.877C347.127 290.607 345.021 295.694 345.021 300.997C345.021 306.301 347.127 311.387 350.877 315.138L435.735 399.995L350.877 484.853L350.846 484.884L350.815 484.917C347.287 488.707 345.366 493.719 345.457 498.896C345.548 504.074 347.644 509.015 351.304 512.679C354.964 516.343 359.902 518.444 365.08 518.541C370.258 518.638 375.271 516.723 379.065 513.198L379.099 513.167L379.132 513.135L478.144 414.15V414.149C481.893 410.399 484 405.312 484 400.009C484 394.705 481.893 389.619 478.144 385.868L379.159 286.856L378.804 286.51C375.091 282.977 370.156 281 365.019 281Z" fill="white" stroke="white" stroke-width="5"/>
</svg>
