<svg width="800" height="800" viewBox="0 0 800 800" fill="none" xmlns="http://www.w3.org/2000/svg">
<rect width="800" height="800" rx="400" transform="matrix(-1 0 0 1 800 0)" fill="#FF0099"/>
<path d="M434.981 281C440.285 281 445.371 283.107 449.122 286.856H449.123C452.873 290.607 454.979 295.694 454.979 300.997C454.979 306.301 452.873 311.387 449.123 315.138L364.265 399.995L449.123 484.853L449.154 484.884L449.185 484.917C452.713 488.707 454.634 493.719 454.543 498.896C454.452 504.074 452.356 509.015 448.696 512.679C445.036 516.343 440.098 518.444 434.92 518.541C429.742 518.638 424.729 516.723 420.935 513.198L420.901 513.167L420.868 513.135L321.856 414.15V414.149C318.107 410.399 316 405.312 316 400.009C316 394.705 318.107 389.619 321.856 385.868L420.841 286.856L421.196 286.51C424.909 282.977 429.844 281 434.981 281Z" fill="white" stroke="white" stroke-width="5"/>
</svg>
