<svg width="40" height="40" viewBox="0 0 40 40" fill="none" xmlns="http://www.w3.org/2000/svg">
<path d="M11 13.7564C11 13.3372 11.3372 13 11.7564 13H13.1905C13.8838 13 14.4984 13.4034 14.7852 14.0086H27.7388C28.5677 14.0086 29.1729 14.7965 28.9554 15.597L27.6632 20.3971C27.3953 21.3867 26.497 22.077 25.4727 22.077H16.38L16.5502 22.9752C16.6195 23.3314 16.9315 23.5898 17.294 23.5898H26.3804C26.7996 23.5898 27.1368 23.927 27.1368 24.3462C27.1368 24.7654 26.7996 25.1026 26.3804 25.1026H17.294C16.2035 25.1026 15.2674 24.3273 15.0657 23.2589L13.4394 14.7177C13.4174 14.5979 13.3134 14.5128 13.1905 14.5128H11.7564C11.3372 14.5128 11 14.1756 11 13.7564ZM15.0342 27.624C15.0342 27.4253 15.0733 27.2286 15.1494 27.0451C15.2254 26.8615 15.3368 26.6948 15.4773 26.5543C15.6178 26.4138 15.7846 26.3024 15.9681 26.2263C16.1516 26.1503 16.3484 26.1112 16.547 26.1112C16.7457 26.1112 16.9424 26.1503 17.126 26.2263C17.3095 26.3024 17.4763 26.4138 17.6168 26.5543C17.7572 26.6948 17.8687 26.8615 17.9447 27.0451C18.0207 27.2286 18.0599 27.4253 18.0599 27.624C18.0599 27.8227 18.0207 28.0194 17.9447 28.2029C17.8687 28.3865 17.7572 28.5533 17.6168 28.6937C17.4763 28.8342 17.3095 28.9457 17.126 29.0217C16.9424 29.0977 16.7457 29.1368 16.547 29.1368C16.3484 29.1368 16.1516 29.0977 15.9681 29.0217C15.7846 28.9457 15.6178 28.8342 15.4773 28.6937C15.3368 28.5533 15.2254 28.3865 15.1494 28.2029C15.0733 28.0194 15.0342 27.8227 15.0342 27.624ZM25.624 26.1112C26.0252 26.1112 26.41 26.2706 26.6937 26.5543C26.9775 26.838 27.1368 27.2228 27.1368 27.624C27.1368 28.0252 26.9775 28.41 26.6937 28.6937C26.41 28.9775 26.0252 29.1368 25.624 29.1368C25.2228 29.1368 24.838 28.9775 24.5543 28.6937C24.2706 28.41 24.1112 28.0252 24.1112 27.624C24.1112 27.2228 24.2706 26.838 24.5543 26.5543C24.838 26.2706 25.2228 26.1112 25.624 26.1112ZM18.9424 18.0428C18.9424 18.3895 19.226 18.6731 19.5727 18.6731H20.9595V20.0599C20.9595 20.4066 21.2431 20.6902 21.5898 20.6902C21.9365 20.6902 22.2201 20.4066 22.2201 20.0599V18.6731H23.6069C23.9536 18.6731 24.2373 18.3895 24.2373 18.0428C24.2373 17.6961 23.9536 17.4124 23.6069 17.4124H22.2201V16.0257C22.2201 15.679 21.9365 15.3953 21.5898 15.3953C21.2431 15.3953 20.9595 15.679 20.9595 16.0257V17.4124H19.5727C19.226 17.4124 18.9424 17.6961 18.9424 18.0428Z" fill="#FF0099"/>
</svg>
