<svg width="150" height="150" viewBox="0 0 150 150" fill="none" xmlns="http://www.w3.org/2000/svg">
<path d="M133.832 109.549C142.763 109.549 150.003 116.789 150.003 125.721V129.764C150.003 140.928 140.953 149.978 129.789 149.978H33.6011C22.4369 149.978 13.3862 140.928 13.3862 129.764V125.721C13.3863 116.789 20.6268 109.549 29.5581 109.549H133.832ZM55.4458 10.6678C72.9557 -5.05925 99.3977 -3.17916 114.506 14.8671C115.639 16.2205 115.493 18.2735 114.18 19.453L17.7896 106.03C15.3345 108.235 11.6268 107.971 9.50831 105.441C-4.61502 88.572 -2.79519 62.9786 13.5728 48.2772L55.4458 10.6678Z" fill="url(#paint0_linear_20030_33679)"/>
<defs>
<linearGradient id="paint0_linear_20030_33679" x1="23.6235" y1="92.79" x2="119.933" y2="68.7696" gradientUnits="userSpaceOnUse">
<stop stop-color="#FA5C00"/>
<stop offset="1" stop-color="#FFC400"/>
</linearGradient>
</defs>
</svg>
