<svg width="86" height="25" viewBox="0 0 86 25" fill="none" xmlns="http://www.w3.org/2000/svg">
<path d="M18.5595 15.859C19.7498 15.8591 20.7146 16.824 20.7148 18.0143V18.5534C20.7148 20.0415 19.5086 21.2487 18.0204 21.2487H4.54778C3.05959 21.2487 1.85247 20.0416 1.85247 18.5534V18.0143C1.85269 16.8239 2.81831 15.859 4.00872 15.859H18.5595ZM7.68157 2.65981C10.0871 0.57384 13.7284 0.832497 15.8144 3.23794C15.9708 3.41835 15.9518 3.69184 15.7714 3.84829L2.45794 15.3922C2.12064 15.6847 1.60981 15.6485 1.31731 15.3112C-0.632192 13.0626 -0.38986 9.65952 1.85833 7.70962L7.68157 2.65981Z" fill="url(#paint0_linear_20030_33689)"/>
<path d="M36.0797 10.955C36.0797 11.4969 36.0311 11.9901 35.9338 12.4347C35.8435 12.8723 35.6977 13.2752 35.4962 13.6434C35.2947 14.0116 35.0342 14.352 34.7147 14.6646C34.3951 14.9772 34.0096 15.2759 33.5581 15.5607L36.0381 19.9788L31.349 20.8958L29.7443 16.4568L28.4522 16.4985L28.2646 20.8333H23.784C23.8187 19.2494 23.85 17.6725 23.8778 16.1025C23.9125 14.5326 23.9507 12.9557 23.9924 11.3718C24.0063 10.5729 24.0202 9.78102 24.0341 8.99603C24.048 8.21105 24.0758 7.41912 24.1174 6.62025C24.6037 6.43963 25.083 6.29028 25.5554 6.17218C26.0278 6.05409 26.5002 5.96378 26.9726 5.90126C27.4519 5.83179 27.9347 5.78664 28.421 5.7658C28.9142 5.73801 29.4178 5.72412 29.9319 5.72412C30.7238 5.72412 31.4879 5.83527 32.2243 6.05756C32.9676 6.27291 33.6241 6.59941 34.1937 7.03705C34.7633 7.4747 35.2183 8.02002 35.5587 8.67301C35.9061 9.326 36.0797 10.0867 36.0797 10.955ZM31.4115 11.2885C31.4115 10.9967 31.3698 10.7292 31.2865 10.4861C31.2101 10.243 31.092 10.0346 30.9322 9.8609C30.7794 9.68029 30.5849 9.54135 30.3487 9.4441C30.1194 9.3399 29.8485 9.2878 29.5359 9.2878C29.397 9.2878 29.2615 9.29822 29.1295 9.31906C28.9975 9.33295 28.869 9.35726 28.744 9.392L28.5773 13.2683H28.8273C29.126 13.2683 29.4282 13.2301 29.7339 13.1537C30.0465 13.0772 30.3244 12.9591 30.5675 12.7994C30.8176 12.6396 31.019 12.4347 31.1719 12.1846C31.3316 11.9345 31.4115 11.6358 31.4115 11.2885ZM43.3155 6.32849L42.586 20.5207L38.1888 20.7499L37.772 6.62025L43.3155 6.32849ZM55.9175 15.6649C55.9175 16.6166 55.7508 17.4398 55.4174 18.1345C55.0909 18.8222 54.6393 19.3918 54.0628 19.8434C53.4931 20.288 52.8228 20.6179 52.0517 20.8333C51.2875 21.0417 50.4643 21.1459 49.5821 21.1459C49.2417 21.1459 48.8666 21.1007 48.4567 21.0104C48.0538 20.9201 47.644 20.809 47.2272 20.677C46.8104 20.538 46.4074 20.3922 46.0184 20.2393C45.6364 20.0796 45.296 19.9302 44.9973 19.7913L45.4557 15.7066C46.0462 16.0609 46.6992 16.3318 47.4147 16.5194C48.1372 16.7 48.8458 16.7903 49.5404 16.7903C49.6724 16.7903 49.8322 16.7868 50.0198 16.7799C50.2073 16.766 50.3845 16.7347 50.5512 16.6861C50.7248 16.6305 50.8707 16.5506 50.9888 16.4464C51.1069 16.3422 51.166 16.1929 51.166 15.9983C51.166 15.8664 51.1243 15.7552 51.0409 15.6649C50.9576 15.5676 50.8499 15.4912 50.7179 15.4357C50.5859 15.3731 50.4366 15.328 50.2698 15.3002C50.1031 15.2655 49.9399 15.2412 49.7801 15.2273C49.6203 15.2134 49.471 15.2064 49.332 15.2064C49.1931 15.2064 49.0819 15.2064 48.9986 15.2064C48.4012 15.2064 47.8558 15.1126 47.3626 14.9251C46.8764 14.7375 46.4561 14.4735 46.1018 14.1331C45.7545 13.7858 45.4835 13.369 45.289 12.8827C45.0945 12.3895 44.9973 11.8442 44.9973 11.2468C44.9973 10.4271 45.1605 9.69418 45.487 9.04813C45.8204 8.39514 46.2616 7.84288 46.8104 7.39134C47.3661 6.93285 48.0017 6.58204 48.7172 6.33891C49.4328 6.09577 50.1726 5.9742 50.9367 5.9742C51.2771 5.9742 51.6279 5.9881 51.9892 6.01588C52.3504 6.03672 52.7081 6.0784 53.0624 6.14092C53.4237 6.20345 53.7745 6.28333 54.1149 6.38059C54.4552 6.47784 54.7783 6.59941 55.0839 6.74529L54.688 10.9759C54.2156 10.8161 53.7189 10.6841 53.1979 10.5799C52.6838 10.4687 52.1802 10.4132 51.687 10.4132C51.5967 10.4132 51.4786 10.4166 51.3327 10.4236C51.1938 10.4236 51.0444 10.434 50.8846 10.4548C50.7318 10.4687 50.5755 10.4931 50.4157 10.5278C50.2559 10.5625 50.1135 10.6112 49.9885 10.6737C49.8635 10.7292 49.7627 10.8057 49.6863 10.9029C49.6099 11.0002 49.5752 11.1148 49.5821 11.2468C49.5891 11.3996 49.6446 11.5177 49.7488 11.6011C49.86 11.6844 49.9989 11.7469 50.1656 11.7886C50.3393 11.8234 50.5269 11.8407 50.7283 11.8407C50.9367 11.8407 51.1417 11.8373 51.3431 11.8303C51.5446 11.8164 51.7321 11.806 51.9058 11.799C52.0795 11.7852 52.2219 11.7817 52.333 11.7886C52.8888 11.8234 53.3889 11.9415 53.8335 12.1429C54.2781 12.3444 54.6532 12.6118 54.9589 12.9453C55.2715 13.2787 55.5077 13.6781 55.6675 14.1436C55.8342 14.6021 55.9175 15.1092 55.9175 15.6649ZM69.8013 11.3927C69.8013 12.0665 69.7006 12.6639 69.4991 13.1849C69.2977 13.7059 69.0198 14.1644 68.6655 14.5604C68.3182 14.9494 67.9083 15.2794 67.4359 15.5503C66.9635 15.8143 66.4564 16.0331 65.9146 16.2067C65.3797 16.3735 64.8239 16.4985 64.2474 16.5819C63.6708 16.6583 63.1046 16.7 62.5489 16.7069V21.1459H57.6931C57.6931 20.354 57.6931 19.5829 57.6931 18.8326C57.7001 18.0824 57.7035 17.3391 57.7035 16.6027C57.7105 15.8594 57.714 15.1126 57.714 14.3624C57.7209 13.6121 57.7279 12.8376 57.7348 12.0387C57.7487 11.1912 57.7522 10.3437 57.7452 9.4962C57.7383 8.6487 57.7556 7.79425 57.7973 6.93285C58.6865 6.66888 59.5757 6.47089 60.4649 6.33891C61.3541 6.20692 62.271 6.14092 63.2158 6.14092C63.7507 6.14092 64.2856 6.18608 64.8205 6.27639C65.3554 6.35975 65.866 6.49521 66.3522 6.68277C66.8455 6.87033 67.3005 7.10652 67.7173 7.39134C68.141 7.66921 68.5057 8.00265 68.8114 8.39167C69.117 8.78069 69.3567 9.22528 69.5304 9.72544C69.711 10.2256 69.8013 10.7813 69.8013 11.3927ZM65.1748 11.7469C65.1748 11.2954 65.0358 10.9446 64.758 10.6945C64.487 10.4375 64.1327 10.309 63.6951 10.309C63.5492 10.309 63.3964 10.3229 63.2366 10.3506C63.0838 10.3715 62.9379 10.3993 62.799 10.434L62.6739 13.4767C62.7712 13.4906 62.865 13.4975 62.9553 13.4975C63.0456 13.4975 63.1394 13.4975 63.2366 13.4975C63.4867 13.4975 63.7264 13.4558 63.9556 13.3725C64.1918 13.2891 64.4002 13.171 64.5808 13.0182C64.7614 12.8584 64.9038 12.6743 65.008 12.4659C65.1192 12.2506 65.1748 12.0109 65.1748 11.7469ZM84.3415 13.0182C84.3415 13.6503 84.2686 14.2617 84.1227 14.8521C83.9768 15.4357 83.7649 15.9845 83.4871 16.4985C83.2161 17.0126 82.8827 17.4849 82.4867 17.9156C82.0977 18.3394 81.6566 18.7041 81.1634 19.0098C80.6771 19.3154 80.1457 19.5551 79.5691 19.7287C78.9925 19.8955 78.3812 19.9788 77.7352 19.9788C77.11 19.9788 76.5125 19.8989 75.9429 19.7392C75.3802 19.5794 74.8523 19.3571 74.359 19.0723C73.8658 18.7805 73.4178 18.4332 73.0148 18.0303C72.6189 17.6204 72.2785 17.1689 71.9937 16.6757C71.7158 16.1755 71.497 15.6406 71.3372 15.071C71.1844 14.5013 71.108 13.9074 71.108 13.2891C71.108 12.6848 71.1809 12.0943 71.3268 11.5177C71.4727 10.9342 71.6811 10.3854 71.952 9.87132C72.2299 9.35726 72.5633 8.88489 72.9523 8.45419C73.3413 8.02349 73.7755 7.65184 74.2548 7.33924C74.7411 7.02663 75.2656 6.7835 75.8283 6.60983C76.391 6.43616 76.9849 6.34933 77.6101 6.34933C78.6174 6.34933 79.5344 6.50563 80.361 6.81823C81.1946 7.13083 81.9032 7.5789 82.4867 8.16243C83.0772 8.739 83.5322 9.44063 83.8518 10.2673C84.1783 11.087 84.3415 12.004 84.3415 13.0182ZM79.715 13.2891C79.715 12.9904 79.6698 12.7021 79.5795 12.4243C79.4962 12.1394 79.3711 11.8894 79.2044 11.674C79.0377 11.4517 78.8293 11.2746 78.5792 11.1426C78.3361 11.0036 78.0547 10.9342 77.7352 10.9342C77.4087 10.9342 77.1169 10.9932 76.8599 11.1113C76.6028 11.2294 76.3805 11.3927 76.193 11.6011C76.0124 11.8025 75.8734 12.0422 75.7762 12.32C75.6789 12.591 75.6303 12.8793 75.6303 13.1849C75.6303 13.4767 75.672 13.7684 75.7553 14.0602C75.8387 14.352 75.9637 14.6159 76.1305 14.8521C76.2972 15.0883 76.5021 15.2794 76.7452 15.4252C76.9953 15.5711 77.2836 15.6441 77.6101 15.6441C77.9366 15.6441 78.2284 15.5815 78.4854 15.4565C78.7494 15.3245 78.9717 15.1508 79.1523 14.9355C79.3329 14.7132 79.4718 14.4596 79.5691 14.1748C79.6664 13.89 79.715 13.5948 79.715 13.2891Z" fill="url(#paint1_linear_20030_33689)"/>
<defs>
<linearGradient id="paint0_linear_20030_33689" x1="3.26229" y1="13.623" x2="16.5059" y2="10.2022" gradientUnits="userSpaceOnUse">
<stop stop-color="#FA5C00"/>
<stop offset="1" stop-color="#FFC400"/>
</linearGradient>
<linearGradient id="paint1_linear_20030_33689" x1="33.1788" y1="15.4672" x2="63.8736" y2="-3.6684" gradientUnits="userSpaceOnUse">
<stop stop-color="#FA5C00"/>
<stop offset="1" stop-color="#FFC400"/>
</linearGradient>
</defs>
</svg>
