<svg width="100" height="100" viewBox="0 0 100 100" fill="none" xmlns="http://www.w3.org/2000/svg">
<path d="M40.0805 19.4359C40.2024 19.0212 40.4553 18.6572 40.8014 18.3984C41.1476 18.1395 41.5682 17.9997 42.0004 18H57.9994C58.3161 18.0002 58.6282 18.0757 58.9101 18.2202C59.1919 18.3646 59.4354 18.574 59.6205 18.8309C59.8057 19.0879 59.9271 19.3852 59.9749 19.6983C60.0226 20.0114 59.9953 20.3313 59.8953 20.6318L53.2143 40.6823C52.9985 41.3299 53.4805 41.9985 54.163 41.9985H67.9987C68.3732 41.9982 68.7403 42.1031 69.0581 42.3012C69.3759 42.4994 69.6317 42.7828 69.7964 43.1191C69.961 43.4555 70.0279 43.8314 69.9894 44.2039C69.9509 44.5764 69.8086 44.9307 69.5786 45.2263L41.5804 81.224C41.2936 81.5945 40.8858 81.8526 40.4281 81.9531C39.9704 82.0537 39.492 81.9903 39.0763 81.7741C38.6605 81.5579 38.3339 81.2026 38.1534 80.7702C37.9729 80.3378 37.95 79.8557 38.0887 79.4081L44.894 57.2917C45.0919 56.6486 44.611 55.9976 43.9382 55.9976H32.001C31.6901 55.9977 31.3834 55.9254 31.1054 55.7864C30.8273 55.6473 30.5854 55.4453 30.3991 55.1964C30.2127 54.9475 30.0869 54.6586 30.0318 54.3527C29.9766 54.0467 29.9935 53.732 30.0812 53.4337L40.0805 19.4359Z" stroke="url(#paint0_linear_20000_33670)" stroke-width="5"/>
<defs>
<linearGradient id="paint0_linear_20000_33670" x1="36.2995" y1="57.5959" x2="62.932" y2="53.4451" gradientUnits="userSpaceOnUse">
<stop stop-color="#FA5C00"/>
<stop offset="1" stop-color="#FFC400"/>
</linearGradient>
</defs>
</svg>
