<svg width="150" height="150" viewBox="0 0 150 150" fill="none" xmlns="http://www.w3.org/2000/svg">
<path d="M77.3889 150C82.2297 150 87.1056 149.451 92.0168 148.352C96.9279 147.254 101.953 145.674 107.093 143.612C105.333 125.843 100.199 109.249 91.6911 93.8297C83.1832 78.4104 72.2548 64.8267 58.9061 53.0787C75.0419 61.3023 89.0126 72.1693 100.818 85.6795C112.624 99.1897 120.876 114.609 125.576 131.937C126.163 131.497 126.712 131.021 127.222 130.51L128.877 128.854C135.771 121.952 141.014 114.242 144.605 105.725C148.196 97.2073 149.994 88.3228 150 79.0712C150 69.0854 148.02 59.5401 144.059 50.4354C140.098 41.3307 134.598 33.2539 127.557 26.2051C115.675 14.3102 100.272 6.5653 81.3495 2.9704C62.4267 -0.624494 35.8759 -0.95638 1.6974 1.97475C-0.943003 37.072 -0.502939 63.837 3.0176 82.2696C6.53813 100.702 14.166 115.79 25.9011 127.532C33.0888 134.728 41.1215 140.273 49.9992 144.167C58.8768 148.062 68.0067 150.006 77.3889 150Z" fill="#FF0099"/>
</svg>
