<svg class="logo" width="80" height="30" viewBox="0 0 80 30" fill="none" xmlns="http://www.w3.org/2000/svg">
<path d="M21.4384 23V22.785L22.6857 22.4624V8.31236L21.4384 7.98979V7.77475H33.9111L33.1799 13.3229H32.9004L31.8897 9.79618C31.7176 9.22272 31.4524 8.7998 31.094 8.52741C30.7356 8.24068 30.3413 8.09731 29.9112 8.09731H25.8469V15.1078H28.0188C28.2482 15.1078 28.4561 15.0505 28.6425 14.9358C28.8432 14.8211 29.0152 14.6706 29.1586 14.4842C29.4023 14.2261 29.6173 13.8892 29.8037 13.4735C30.0044 13.0577 30.1191 12.6276 30.1478 12.1832H30.3628V17.6239H30.1478L28.1694 15.3659H25.8469V22.5269L27.0941 22.785V23H21.4384ZM38.9197 22.5699L40.0809 22.785V23H34.7478V22.785L35.909 22.5699V7.98979H34.6402V7.75324L38.9197 6.97907V22.5699ZM47.2747 11.9251C48.2066 11.9251 49.0309 12.0613 49.7477 12.3337C50.4645 12.6061 51.0667 13.0004 51.5541 13.5165C52.0415 14.0326 52.4071 14.649 52.6508 15.3659C52.9089 16.0684 53.0379 16.8497 53.0379 17.7099C53.0379 18.4984 52.9089 19.2367 52.6508 19.9248C52.4071 20.5987 52.0415 21.1936 51.5541 21.7097C51.0667 22.2115 50.4645 22.6057 49.7477 22.8925C49.0452 23.1792 48.2209 23.3226 47.2747 23.3226C46.3285 23.3226 45.4898 23.1792 44.7587 22.8925C44.0418 22.6057 43.4397 22.2115 42.9523 21.7097C42.4792 21.1936 42.1208 20.5987 41.877 19.9248C41.6333 19.2367 41.5115 18.4984 41.5115 17.7099C41.5115 16.8497 41.6405 16.0684 41.8985 15.3659C42.1709 14.649 42.5508 14.0326 43.0383 13.5165C43.5401 13.0004 44.1494 12.6061 44.8662 12.3337C45.583 12.0613 46.3858 11.9251 47.2747 11.9251ZM47.2962 12.1832C46.6797 12.1832 46.1708 12.4269 45.7694 12.9143C45.3679 13.4018 45.0669 14.0613 44.8662 14.8928C44.6798 15.7243 44.5866 16.6633 44.5866 17.7099C44.5866 18.441 44.6368 19.1363 44.7371 19.7958C44.8375 20.441 44.9952 21.0072 45.2102 21.4947C45.4396 21.9821 45.7264 22.3692 46.0704 22.6559C46.4145 22.9283 46.8159 23.0645 47.2747 23.0645C47.7335 23.0645 48.1277 22.9283 48.4574 22.6559C48.8015 22.3835 49.0882 22.0036 49.3176 21.5162C49.547 21.0144 49.7119 20.441 49.8122 19.7958C49.9126 19.1507 49.9628 18.4554 49.9628 17.7099C49.9628 16.9357 49.9126 16.2117 49.8122 15.5379C49.7119 14.8641 49.5542 14.2763 49.3391 13.7745C49.1241 13.2728 48.8445 12.8857 48.5005 12.6133C48.1707 12.3266 47.7693 12.1832 47.2962 12.1832ZM54.6988 23V22.785L55.8601 22.5054V12.9358H54.6128V12.6993L58.8707 11.9251V15.3014L59.0427 15.4734C59.2435 15.0003 59.437 14.5774 59.6234 14.2046C59.8241 13.8175 60.0248 13.5021 60.2255 13.2584C60.5696 12.7997 60.9423 12.4627 61.3437 12.2477C61.7595 12.0327 62.2183 11.9251 62.72 11.9251C63.0641 11.9251 63.3938 11.9968 63.7092 12.1402C64.0246 12.2692 64.2827 12.4771 64.4834 12.7638C64.6841 13.0362 64.7845 13.3874 64.7845 13.8175C64.7845 14.1473 64.6985 14.4483 64.5264 14.7207C64.3544 14.9931 64.1178 15.2082 63.8168 15.3659C63.5157 15.5236 63.1501 15.6024 62.72 15.6024C62.3473 15.6024 62.0104 15.5379 61.7093 15.4089C61.4082 15.2655 61.1717 15.0791 60.9997 14.8498C60.842 14.606 60.7631 14.3336 60.7631 14.0326C60.7631 13.9179 60.7703 13.8175 60.7846 13.7315C60.8133 13.6312 60.8348 13.538 60.8491 13.452C60.8778 13.3659 60.8921 13.2871 60.8921 13.2154C60.8921 13.1151 60.8563 13.0649 60.7846 13.0649C60.6556 13.0649 60.4979 13.1867 60.3115 13.4305C60.1395 13.6742 59.9316 14.0469 59.6879 14.5487C59.5589 14.8354 59.4227 15.1652 59.2793 15.5379C59.1359 15.9107 58.9997 16.3049 58.8707 16.7207V22.5054L60.0535 22.785V23H54.6988ZM71.8094 11.9251C72.6696 11.9251 73.4079 12.0183 74.0244 12.2047C74.6552 12.3911 75.1713 12.6778 75.5727 13.0649C75.9741 13.452 76.268 13.9394 76.4544 14.5272C76.6408 15.115 76.734 15.8031 76.734 16.5916V22.2688C76.734 22.4409 76.7698 22.5771 76.8415 22.6774C76.9275 22.7778 77.0422 22.828 77.1856 22.828C77.3289 22.828 77.501 22.785 77.7017 22.6989C77.9167 22.6129 78.1318 22.4982 78.3468 22.3549V22.5699C78.1604 22.7133 77.9382 22.8423 77.6802 22.957C77.4365 23.0717 77.1712 23.1577 76.8845 23.215C76.6121 23.2867 76.3397 23.3226 76.0673 23.3226C75.3505 23.3226 74.7771 23.1362 74.347 22.7634C73.9312 22.3764 73.7233 21.7527 73.7233 20.8925C73.7233 20.6632 73.7233 20.4983 73.7233 20.3979C73.7233 20.2833 73.7233 20.1972 73.7233 20.1399C73.7233 20.0682 73.7233 19.9894 73.7233 19.9033L73.5513 19.7743C73.2789 20.3334 72.9563 20.8352 72.5836 21.2796C72.2252 21.7097 71.8238 22.0825 71.3793 22.3979C70.9349 22.6989 70.4761 22.9283 70.003 23.086C69.5299 23.2437 69.0568 23.3226 68.5837 23.3226C68.0533 23.3226 67.573 23.2294 67.1429 23.043C66.7128 22.8566 66.3688 22.5842 66.1107 22.2258C65.8526 21.8674 65.7236 21.4302 65.7236 20.9141C65.7236 19.7098 66.4046 18.7851 67.7666 18.14C69.1428 17.4805 71.1284 17.1507 73.7233 17.1507C73.7233 15.9322 73.6373 14.9716 73.4653 14.2691C73.2932 13.5666 72.9922 13.0649 72.5621 12.7638C72.1463 12.4627 71.5442 12.3122 70.7557 12.3122C70.2826 12.3122 69.8597 12.3624 69.4869 12.4627C69.1142 12.5488 68.8203 12.6491 68.6052 12.7638C68.3902 12.8785 68.2827 12.986 68.2827 13.0864C68.2827 13.1581 68.3615 13.2369 68.5192 13.3229C68.6769 13.4089 68.9493 13.5236 69.3364 13.667C70.0962 13.9394 70.4761 14.348 70.4761 14.8928C70.4761 15.3515 70.2683 15.7099 69.8525 15.968C69.4367 16.2117 68.9278 16.3336 68.3257 16.3336C67.7379 16.3336 67.2361 16.2117 66.8204 15.968C66.4189 15.7099 66.2182 15.3372 66.2182 14.8498C66.2182 14.4913 66.3688 14.1401 66.6698 13.796C66.9709 13.452 67.3795 13.1366 67.8956 12.8498C68.426 12.5631 69.0282 12.3409 69.702 12.1832C70.3758 12.0112 71.0783 11.9251 71.8094 11.9251ZM73.7233 17.4088C72.5191 17.4088 71.5299 17.5665 70.7557 17.8819C69.9815 18.1973 69.4081 18.6059 69.0353 19.1077C68.6626 19.5951 68.4762 20.1256 68.4762 20.699C68.4762 21.0431 68.5407 21.3298 68.6697 21.5592C68.7988 21.7742 68.9708 21.9391 69.1859 22.0538C69.4009 22.1542 69.6518 22.2043 69.9385 22.2043C70.2539 22.2043 70.5837 22.1398 70.9277 22.0108C71.2861 21.8818 71.6374 21.6811 71.9815 21.4087C72.3255 21.1363 72.6481 20.7922 72.9492 20.3764C73.2646 19.9607 73.5226 19.4589 73.7233 18.8711V17.4088Z" fill="#FF0099"/>
<path d="M9.4017 24.353C9.98976 24.353 10.5821 24.2849 11.1787 24.1488C11.7753 24.0126 12.3859 23.8168 13.0103 23.5612C12.7964 21.3589 12.1727 19.3022 11.1392 17.3911C10.1056 15.48 8.77799 13.7965 7.15636 12.3404C9.11658 13.3596 10.8138 14.7065 12.2479 16.381C13.6821 18.0555 14.6846 19.9666 15.2556 22.1143C15.3269 22.0597 15.3935 22.0007 15.4555 21.9374L15.6566 21.732C16.4941 20.8766 17.131 19.9211 17.5672 18.8654C18.0035 17.8098 18.2219 16.7086 18.2227 15.5619C18.2227 14.3243 17.9821 13.1412 17.5009 12.0128C17.0198 10.8843 16.3515 9.88326 15.4962 9.00962C14.0527 7.53535 12.1816 6.57543 9.88284 6.12988C7.58405 5.68432 4.3586 5.64318 0.206517 6.00647C-0.114245 10.3565 -0.0607855 13.6738 0.366897 15.9584C0.79458 18.2429 1.72123 20.1129 3.14684 21.5682C4.02002 22.4601 4.99585 23.1473 6.07432 23.63C7.1528 24.1127 8.26192 24.3537 9.4017 24.353Z" fill="#FF0099"/>
</svg>