<svg width="50" height="50" viewBox="0 0 50 50" fill="none" xmlns="http://www.w3.org/2000/svg">
<g opacity="0.993">
<path fill-rule="evenodd" clip-rule="evenodd" d="M23.2309 9.50988C24.8405 9.33004 25.793 9.33004 27.5225 9.50988C30.5841 9.96301 33.4221 11.3782 35.6263 13.5507C34.1368 14.9586 32.6669 16.3871 31.217 17.8357C28.4402 15.4823 25.3408 14.9391 21.9187 16.2061C19.4084 17.3606 17.6603 19.2315 16.6745 21.8188C15.0636 20.6195 13.4737 19.3923 11.9055 18.1377C11.7965 18.0803 11.672 18.0593 11.5503 18.0777C14.0414 13.2746 17.9341 10.4179 23.2286 9.50766" fill="#F44336"/>
<path fill-rule="evenodd" clip-rule="evenodd" d="M11.5458 18.0777C11.6716 18.0585 11.793 18.0784 11.9055 18.1377C13.4737 19.3923 15.0614 20.6195 16.6723 21.8188C16.4188 22.8269 16.259 23.8563 16.195 24.8938C16.2497 25.8973 16.4089 26.8824 16.6723 27.8489L11.6657 31.8342C9.48547 27.2783 9.4455 22.6928 11.5458 18.0777Z" fill="#FFC107"/>
<path fill-rule="evenodd" clip-rule="evenodd" d="M35.3888 36.661C33.8299 35.2861 32.1979 33.9965 30.4999 32.7978C32.202 31.5959 33.2352 29.947 33.5993 27.8511H25.2579V22.0586C30.0684 22.0186 34.8766 22.0593 39.6827 22.1807C40.5945 27.1318 39.5413 31.5959 36.5233 35.573C36.1644 35.9545 35.7843 36.3176 35.3888 36.661Z" fill="#448AFF"/>
<path fill-rule="evenodd" clip-rule="evenodd" d="M16.6723 27.8489C18.4929 32.3737 21.8306 34.4881 26.6855 34.1876C28.0484 34.0299 29.355 33.5538 30.4999 32.7978C32.1991 33.9996 33.8287 35.2874 35.3888 36.661C32.9169 38.8822 29.7652 40.2001 26.448 40.3998C25.6943 40.4601 24.937 40.4601 24.1833 40.3998C18.5321 39.7337 14.3596 36.8785 11.6657 31.8342L16.6723 27.8489Z" fill="#43A047"/>
</g>
</svg>
