<svg width="100" height="100" viewBox="0 0 100 100" fill="none" xmlns="http://www.w3.org/2000/svg">
<path fill-rule="evenodd" clip-rule="evenodd" d="M41.232 20.854C42.5248 17.6199 46.784 15.6206 50.0864 18.1349C55.5904 22.3256 62.4928 28.4899 68.048 35.5372C73.552 42.5205 78 50.7193 78 58.9246C78 66.2598 75.728 71.7108 72.4384 75.6167C69.1776 79.4842 65.0368 81.6979 61.4624 82.8143C60.6607 83.0791 59.7922 83.0602 59.0027 82.7608C58.2132 82.4615 57.5508 81.8998 57.1264 81.17C56.3584 79.8809 56.3552 78.163 57.3184 76.7843C60.0608 72.8432 62.96 67.1747 62.96 62.1236C62.96 59.6156 61.8784 56.6502 60.1344 53.6048C58.8216 51.3591 57.3197 49.2294 55.6448 47.2389C55.3216 51.7238 54.3456 57.3635 51.3184 62.0276C50.999 62.5286 50.5642 62.9458 50.0503 63.2442C49.5364 63.5426 48.9585 63.7135 48.3649 63.7427C47.7714 63.7718 47.1795 63.6583 46.6388 63.4116C46.0982 63.165 45.6245 62.7924 45.2576 62.3251C44.7488 61.6821 44.2464 60.9751 43.7856 60.3289L43.7056 60.2138L42.9856 59.2125C40.7904 61.3974 38.7456 64.0109 38.7456 66.922C38.7456 69.4939 40.0288 73.0063 41.5488 75.9877C42.3712 77.5968 42.0288 79.3818 41.0368 80.5526C39.9872 81.7938 38.0736 82.4336 36.2592 81.3844C30.0384 77.7824 22 70.0889 22 58.9246C22 55.8952 23.0272 52.7635 24.464 49.7021C25.9136 46.6215 27.8752 43.4098 29.936 40.2012C30.6528 39.0923 31.3728 37.9833 32.096 36.8743C35.632 31.4585 39.136 26.0907 41.232 20.854ZM46.4736 21.8713C46.2969 21.9362 46.1357 22.0376 46.0007 22.1687C45.8656 22.2999 45.7596 22.4579 45.6896 22.6327C43.3984 28.3588 39.568 34.2192 36.032 39.6286C35.328 40.7056 34.6421 41.7612 33.9744 42.7956C31.9264 45.9785 30.112 48.9663 28.8096 51.7398C27.4976 54.5357 26.8 56.9221 26.8 58.9246C26.8 66.263 31.3024 71.9635 36.0256 75.4887C34.8896 72.8016 33.9456 69.6954 33.9456 66.922C33.9456 61.3878 38.1056 57.2068 40.4288 55.0059C41.9328 53.5824 44.5312 53.4544 46.048 55.3226C46.592 55.9976 47.1296 56.7493 47.616 57.4339L47.6736 57.5139L48.0736 58.0737C50.2176 53.9982 50.8128 49.0271 50.9632 44.9325C51.0272 43.2498 52.0704 41.9159 53.44 41.3592C54.1772 41.0565 54.9903 40.9905 55.7667 41.1705C56.543 41.3505 57.2442 41.7675 57.7728 42.3637C59.9072 44.7213 62.3616 47.8403 64.2976 51.2184C66.2112 54.5549 67.76 58.3904 67.76 62.1236C67.76 67.5394 65.3024 73.0319 62.8192 77.1234C65.0988 76.0203 67.1237 74.4548 68.7648 72.5265C71.2832 69.5387 73.2 65.2009 73.2 58.9246C73.2 52.3444 69.5616 45.2108 64.2752 38.5058C59.0432 31.8616 52.464 25.9755 47.1776 21.9513C47.0048 21.8201 46.7776 21.7689 46.4736 21.8713Z" fill="url(#paint0_linear_20000_33666)"/>
<defs>
<linearGradient id="paint0_linear_20000_33666" x1="30.8192" y1="57.8335" x2="67.3741" y2="50.0991" gradientUnits="userSpaceOnUse">
<stop stop-color="#FA5C00"/>
<stop offset="1" stop-color="#FFC400"/>
</linearGradient>
</defs>
</svg>
