<svg width="60" height="60" viewBox="0 0 60 60" fill="none" xmlns="http://www.w3.org/2000/svg">
<path d="M32.694 23.3145C32.8899 23.5158 33 23.7889 33 24.0737C33 24.3585 32.8899 24.6316 32.694 24.833L27.5216 30.1487L32.694 35.4644C32.8784 35.6679 32.9787 35.937 32.974 36.215C32.9692 36.493 32.8597 36.7583 32.6685 36.955C32.4773 37.1517 32.2193 37.2646 31.9487 37.2698C31.6782 37.275 31.4163 37.1721 31.218 36.9829L25.306 30.9088C25.1101 30.7074 25 30.4343 25 30.1495C25 29.8647 25.1101 29.5916 25.306 29.3902L31.2164 23.3145C31.4124 23.1131 31.6781 23 31.9552 23C32.2323 23 32.4981 23.1131 32.694 23.3145Z" fill="url(#paint0_linear_19998_33666)"/>
<circle cx="30" cy="30" r="30" fill="url(#paint1_linear_19998_33666)"/>
<circle cx="30" cy="30" r="29.5" stroke="white" stroke-opacity="0.3"/>
<defs>
<linearGradient id="paint0_linear_19998_33666" x1="29" y1="20.9446" x2="29" y2="39.4431" gradientUnits="userSpaceOnUse">
<stop stop-color="white" stop-opacity="0.25"/>
<stop offset="0.5" stop-color="white" stop-opacity="0.7"/>
<stop offset="1" stop-color="white" stop-opacity="0.25"/>
</linearGradient>
<linearGradient id="paint1_linear_19998_33666" x1="10" y1="8" x2="51" y2="51" gradientUnits="userSpaceOnUse">
<stop stop-color="white" stop-opacity="0.1"/>
<stop offset="0.5" stop-color="white" stop-opacity="0.2"/>
<stop offset="1" stop-color="white" stop-opacity="0.1"/>
</linearGradient>
</defs>
</svg>
