<svg width="100" height="100" viewBox="0 0 100 100" fill="none" xmlns="http://www.w3.org/2000/svg">
<path d="M51.7988 31.1729C56.8125 27.2088 62.6661 27.2244 67.4023 29.9072C72.5393 32.818 76.2578 38.8071 76.0938 45.9023C75.8965 54.449 69.0061 62.7026 55.2744 70.6309H55.2734C54.0723 71.3249 53.2516 71.8694 52.2705 72.3408C51.3642 72.7764 50.6454 72.9736 50 72.9736C49.3875 72.9736 48.6604 72.7758 47.7256 72.3281C46.7362 71.8543 45.8856 71.2992 44.7236 70.6279H44.7227C30.9966 62.7025 24.1035 54.4461 23.9062 45.9023C23.7422 38.8079 27.4596 32.8202 32.5977 29.9062C37.3351 27.2258 43.1887 27.2098 48.2012 31.1729C49.2557 32.0065 50.7443 32.0065 51.7988 31.1729Z" stroke="url(#paint0_linear_20000_33672)" stroke-width="5.80188" stroke-linejoin="round"/>
<defs>
<linearGradient id="paint0_linear_20000_33672" x1="30.1342" y1="56.5235" x2="66.7182" y2="46.0974" gradientUnits="userSpaceOnUse">
<stop stop-color="#FA5C00"/>
<stop offset="1" stop-color="#FFC400"/>
</linearGradient>
</defs>
</svg>
