<svg width="40" height="40" viewBox="0 0 40 40" fill="none" xmlns="http://www.w3.org/2000/svg">
<path d="M11.6003 27.0709H22.273C22.1989 28.5017 21.2768 29.4133 20.0052 29.4133C18.7228 29.4133 17.8111 28.5017 17.726 27.0709H16.0728C16.1578 29.1058 17.7581 30.8966 20.0052 30.8966C22.2414 30.8966 23.8418 29.1058 23.9268 27.0709H28.3992C29.4062 27.0709 30 26.5517 30 25.7883C30 24.7285 28.9291 23.7747 28.0071 22.8313C27.3076 22.1001 27.1167 20.5952 27.0426 19.3765C26.958 15.2003 25.8876 12.4975 23.0577 11.4799C22.7077 10.1025 21.5631 9 20.0052 9C18.436 9 17.3023 10.1025 16.9419 11.4799C14.1228 12.4975 13.0416 15.2003 12.9674 19.376C12.8829 20.5952 12.7024 22.1001 11.9924 22.8313C11.0808 23.7747 10 24.7285 10 25.7888C10 26.5517 10.6041 27.0709 11.6003 27.0709ZM12.0666 25.47V25.3435C12.2574 25.0255 12.8829 24.4105 13.4446 23.7851C14.197 22.9372 14.557 21.5806 14.6528 19.5036C14.7373 14.8819 16.1152 13.3987 17.9381 12.9112C18.2031 12.8475 18.3411 12.7095 18.3514 12.4445C18.394 11.332 19.0193 10.5579 20.0052 10.5579C20.9802 10.5579 21.616 11.3316 21.6481 12.4445C21.6584 12.7095 21.8068 12.847 22.0718 12.9108C23.8843 13.3987 25.2622 14.8823 25.3576 19.5036C25.4421 21.5806 25.8026 22.9372 26.5659 23.7851C27.1167 24.4105 27.7526 25.0255 27.9433 25.3435V25.47H12.0666Z" fill="url(#paint0_linear_20025_33686)"/>
<defs>
<linearGradient id="paint0_linear_20025_33686" x1="13.1497" y1="22.5472" x2="26.1168" y2="19.5937" gradientUnits="userSpaceOnUse">
<stop stop-color="#FA5C00"/>
<stop offset="1" stop-color="#FFC400"/>
</linearGradient>
</defs>
</svg>
