<svg width="40" height="40" viewBox="0 0 40 40" fill="none" xmlns="http://www.w3.org/2000/svg">
<mask id="path-1-inside-1_20026_33688" fill="white">
<path d="M24.4443 22.334C27.5126 22.334 30 24.8214 30 27.8896V29.1113C30 30.3386 29.0046 31.334 27.7773 31.334H12.2227C10.9954 31.334 10 30.3386 10 29.1113V27.8896C10 24.8214 12.4874 22.334 15.5557 22.334H24.4443ZM20 9C23.0682 9 25.5556 11.4875 25.5557 14.5557C25.5557 17.6239 23.0682 20.1113 20 20.1113C16.9318 20.1113 14.4443 17.6239 14.4443 14.5557C14.4444 11.4875 16.9318 9 20 9Z"/>
</mask>
<path d="M25.5557 14.5557H27.3557V14.5556L25.5557 14.5557ZM14.4443 14.5557L12.6443 14.5556V14.5557H14.4443ZM24.4443 22.334V24.134C26.5185 24.134 28.2 25.8155 28.2 27.8896H30H31.8C31.8 23.8273 28.5067 20.534 24.4443 20.534V22.334ZM30 27.8896H28.2V29.1113H30H31.8V27.8896H30ZM30 29.1113H28.2C28.2 29.3445 28.0105 29.534 27.7773 29.534V31.334V33.134C29.9988 33.134 31.8 31.3327 31.8 29.1113H30ZM27.7773 31.334V29.534H12.2227V31.334V33.134H27.7773V31.334ZM12.2227 31.334V29.534C11.9895 29.534 11.8 29.3445 11.8 29.1113H10H8.2C8.2 31.3327 10.0012 33.134 12.2227 33.134V31.334ZM10 29.1113H11.8V27.8896H10H8.2V29.1113H10ZM10 27.8896H11.8C11.8 25.8155 13.4815 24.134 15.5557 24.134V22.334V20.534C11.4933 20.534 8.2 23.8273 8.2 27.8896H10ZM15.5557 22.334V24.134H24.4443V22.334V20.534H15.5557V22.334ZM20 9V10.8C22.0741 10.8 23.7556 12.4816 23.7557 14.5557L25.5557 14.5557L27.3557 14.5556C27.3556 10.4934 24.0624 7.2 20 7.2V9ZM25.5557 14.5557H23.7557C23.7557 16.6298 22.0741 18.3113 20 18.3113V20.1113V21.9113C24.0624 21.9113 27.3557 18.618 27.3557 14.5557H25.5557ZM20 20.1113V18.3113C17.9259 18.3113 16.2443 16.6298 16.2443 14.5557H14.4443H12.6443C12.6443 18.618 15.9376 21.9113 20 21.9113V20.1113ZM14.4443 14.5557L16.2443 14.5557C16.2444 12.4816 17.9259 10.8 20 10.8V9V7.2C15.9376 7.2 12.6444 10.4934 12.6443 14.5556L14.4443 14.5557Z" fill="url(#paint0_linear_20026_33688)" mask="url(#path-1-inside-1_20026_33688)"/>
<defs>
<linearGradient id="paint0_linear_20026_33688" x1="13.1497" y1="22.8178" x2="26.1416" y2="19.9166" gradientUnits="userSpaceOnUse">
<stop stop-color="#FA5C00"/>
<stop offset="1" stop-color="#FFC400"/>
</linearGradient>
</defs>
</svg>
