<svg width="100" height="100" viewBox="0 0 100 100" fill="none" xmlns="http://www.w3.org/2000/svg">
<path d="M30.4 50C28.9148 50 27.4904 49.4147 26.4402 48.3728C25.39 47.3309 24.8 45.9179 24.8 44.4444C24.8 39.2875 27.455 34.3417 32.1809 30.6951C36.9068 27.0486 43.3165 25 50 25C56.6835 25 63.0932 27.0486 67.8191 30.6951C72.545 34.3417 75.2 39.2875 75.2 44.4444C75.2 45.9179 74.61 47.3309 73.5598 48.3728C72.5096 49.4147 71.0852 50 69.6 50L59.8 61.3889C57.56 64.1667 53.08 64.4444 50.28 62.2222L36 50M49.16 61.1111H30.4M30.4 61.1111H27.6C26.1148 61.1111 24.6904 60.5258 23.6402 59.4839C22.59 58.4421 22 57.029 22 55.5556C22 54.0821 22.59 52.6691 23.6402 51.6272C24.6904 50.5853 26.1148 50 27.6 50H72.4C73.8852 50 75.3096 50.5853 76.3598 51.6272C77.41 52.6691 78 54.0821 78 55.5556C78 57.029 77.41 58.4421 76.3598 59.4839C75.3096 60.5258 73.8852 61.1111 72.4 61.1111H69.6M30.4 61.1111C28.9148 61.1111 27.4904 61.6964 26.4402 62.7383C25.39 63.7802 24.8 65.1932 24.8 66.6667C24.8 71.3889 28.44 75 33.2 75H66.8C71.56 75 75.2 71.3889 75.2 66.6667C75.2 65.1932 74.61 63.7802 73.5598 62.7383C72.5096 61.6964 71.0852 61.1111 69.6 61.1111M69.6 61.1111H60.36" stroke="url(#paint0_linear_20000_33665)" stroke-width="5" stroke-linecap="round" stroke-linejoin="round"/>
<defs>
<linearGradient id="paint0_linear_20000_33665" x1="30.8192" y1="55.9345" x2="66.2471" y2="46.0398" gradientUnits="userSpaceOnUse">
<stop stop-color="#FA5C00"/>
<stop offset="1" stop-color="#FFC400"/>
</linearGradient>
</defs>
</svg>
