<svg width="12" height="12" viewBox="0 0 12 12" fill="none" xmlns="http://www.w3.org/2000/svg">
<path d="M4.29184 2.04475C5.05202 0.681584 5.43181 0 6 0C6.56819 0 6.94798 0.681584 7.70816 2.04475L7.90495 2.39754C8.12095 2.78513 8.22895 2.97893 8.39694 3.10673C8.56494 3.23452 8.77493 3.28192 9.19492 3.37672L9.57652 3.46312C11.0525 3.79731 11.7899 3.96411 11.9657 4.52869C12.1409 5.09268 11.6381 5.68127 10.6319 6.85784L10.3715 7.16203C10.0859 7.49622 9.94251 7.66362 9.87831 7.87001C9.81411 8.07701 9.83571 8.3002 9.87891 8.74599L9.91851 9.15218C10.0703 10.7223 10.1465 11.5071 9.68691 11.8557C9.22732 12.2043 8.53614 11.8863 7.15497 11.2503L6.79678 11.0859C6.40439 10.9047 6.20819 10.8147 6 10.8147C5.7918 10.8147 5.59561 10.9047 5.20322 11.0859L4.84563 11.2503C3.46386 11.8863 2.77268 12.2043 2.31369 11.8563C1.8535 11.5071 1.9297 10.7223 2.08149 9.15218L2.12109 8.74659C2.16429 8.3002 2.18589 8.07701 2.12109 7.87061C2.05749 7.66362 1.9141 7.49622 1.6285 7.16263L1.36811 6.85784C0.361933 5.68187 -0.140856 5.09328 0.0343402 4.52869C0.209536 3.96411 0.948119 3.79671 2.42408 3.46312L2.80567 3.37672C3.22506 3.28192 3.43446 3.23452 3.60306 3.10673C3.77165 2.97893 3.87905 2.78513 4.09504 2.39754L4.29184 2.04475Z" fill="#FFC300"/>
</svg>
